<svg version="1.1" id="Layer_1" xmlns="http://www.w3.org/2000/svg" xmlns:xlink="http://www.w3.org/1999/xlink" x="0px" y="0px"
	 width="100%" viewBox="0 0 500 500" enable-background="new 0 0 500 500" xml:space="preserve">
<path fill="#000000" opacity="1.000000" stroke="none" 
	d="
M275.000000,501.000000 
	C183.333359,501.000000 92.166710,501.000000 1.000049,501.000000 
	C1.000033,334.333405 1.000033,167.666794 1.000016,1.000138 
	C167.666565,1.000092 334.333130,1.000092 500.999756,1.000046 
	C500.999847,167.666519 500.999847,334.333038 500.999939,500.999786 
	C425.833344,501.000000 350.666656,501.000000 275.000000,501.000000 
M314.466614,317.998291 
	C287.200317,317.998291 259.934021,317.998291 232.567734,317.998291 
	C232.567734,296.080658 232.567734,274.685577 232.567734,252.791199 
	C261.069977,252.791199 289.287842,252.791199 317.427490,252.791199 
	C317.427490,238.039734 317.427490,223.791367 317.427490,208.971619 
	C288.926361,208.971619 260.727325,208.971619 232.613281,208.971619 
	C232.613281,190.325638 232.613281,172.258270 232.613281,153.847900 
	C263.201843,153.847900 293.458496,153.847900 323.651978,153.847900 
	C323.651978,139.118423 323.651978,124.739555 323.651978,110.412003 
	C275.384430,110.412003 227.470428,110.412003 179.383850,110.412003 
	C179.383850,194.350739 179.383850,278.038971 179.383850,361.697083 
	C227.721344,361.697083 275.770813,361.697083 323.701782,361.697083 
	C323.701782,346.987976 323.701782,332.585144 323.701782,318.233490 
	C323.084442,318.123810 322.769287,318.021515 322.453339,318.019073 
	C320.121094,318.000946 317.788666,318.002777 314.466614,317.998291 
M128.039093,136.888947 
	C129.697571,114.724396 146.939941,114.374245 162.933075,112.288101 
	C162.933075,97.004494 162.933075,81.943413 162.933075,66.822517 
	C157.480515,66.822517 152.339096,66.639648 147.214600,66.856651 
	C131.543427,67.520233 115.990601,68.923813 101.281868,75.064339 
	C89.616615,79.934288 80.689697,87.704346 77.545532,100.210014 
	C75.499046,108.349777 74.310379,116.886658 74.122353,125.276657 
	C73.644684,146.590591 74.111755,167.923752 73.882912,189.245804 
	C73.701164,206.180176 65.438667,216.703354 49.070484,221.047409 
	C43.481293,222.530762 37.666424,223.215836 31.922813,224.044968 
	C28.691475,224.511459 25.395128,224.527618 22.127743,224.746658 
	C22.127743,241.081970 22.127743,257.009033 22.127743,272.860809 
	C29.204693,273.603912 36.080936,273.814301 42.737930,275.132141 
	C56.346958,277.826263 68.417953,283.101685 72.406105,298.174561 
	C73.539154,302.456818 73.862686,307.051422 73.901833,311.508545 
	C74.102249,334.330261 73.713928,357.162781 74.252167,379.974487 
	C74.818428,403.974121 85.771790,418.437256 108.786804,424.706421 
	C119.765175,427.696838 131.352905,428.657806 142.735367,429.878082 
	C149.402603,430.592865 156.209106,430.008423 162.988037,430.008423 
	C162.988037,415.116394 162.988037,400.182953 162.988037,385.607422 
	C156.834457,384.391083 150.879364,383.673584 145.207367,381.997955 
	C133.089371,378.418060 128.510178,372.123016 128.012177,359.477722 
	C127.920433,357.148254 127.931496,354.813873 127.930717,352.481781 
	C127.924576,333.989441 127.951431,315.497070 127.919044,297.004761 
	C127.893906,282.650391 124.258835,269.393188 111.479507,261.540771 
	C103.590752,256.693451 94.122002,254.408020 85.339157,251.033386 
	C83.623909,250.374329 81.800804,249.995956 80.027443,249.488144 
	C80.031250,248.992981 80.035057,248.497818 80.038857,248.002655 
	C82.279793,247.346710 84.576599,246.837372 86.751640,246.008514 
	C94.622307,243.009155 103.054283,240.902832 110.167542,236.620758 
	C123.527222,228.578430 127.914825,215.303085 127.928299,200.287842 
	C127.946991,179.463394 127.978111,158.638947 128.039093,136.888947 
M398.136047,240.418732 
	C406.082092,243.084503 414.028168,245.750259 421.974213,248.416031 
	C421.933258,248.861191 421.892273,249.306335 421.851318,249.751495 
	C419.993042,250.188095 418.139435,250.645660 416.275787,251.057892 
	C405.123108,253.524963 394.336029,256.972015 385.856750,265.043121 
	C376.816315,273.648468 374.117035,284.841919 374.086700,296.881378 
	C374.034637,317.540680 374.191589,338.201904 373.958588,358.858887 
	C373.808838,372.138733 369.082611,378.361237 356.415436,382.092712 
	C350.769897,383.755798 344.837372,384.444733 339.049011,385.573090 
	C339.049011,400.480865 339.049011,415.401642 339.049011,430.788940 
	C359.269714,429.991608 379.255096,430.126892 398.361603,423.111786 
	C411.637024,418.237610 421.507294,409.774933 424.835907,395.619385 
	C426.647522,387.915070 427.696442,379.877594 427.848663,371.966522 
	C428.258942,350.648285 427.884827,329.316284 428.051941,307.991516 
	C428.170532,292.857208 434.957184,283.302673 449.147308,277.979065 
	C452.851562,276.589325 456.766113,275.558929 460.675476,274.962952 
	C467.018066,273.996002 473.436096,273.524048 480.093628,272.814240 
	C480.093628,264.571594 480.093658,256.593994 480.093658,248.616394 
	C480.093658,240.688324 480.093628,232.760239 480.093628,224.686508 
	C475.158325,224.401321 470.828827,224.376038 466.556885,223.867325 
	C441.459137,220.878571 426.911957,211.570053 427.838623,182.812210 
	C428.530365,161.344620 428.277924,139.822678 427.707886,118.344528 
	C427.027008,92.687531 416.314301,78.723900 391.687836,72.155945 
	C380.691864,69.223282 369.111755,68.302887 357.732422,67.056648 
	C351.553864,66.379997 345.240356,66.936012 339.007996,66.936012 
	C339.007996,82.207619 339.007996,97.153671 339.007996,112.009300 
	C344.960327,113.069557 350.752258,113.700264 356.320129,115.176186 
	C368.039368,118.282684 373.153900,124.840759 373.942505,136.954666 
	C374.104645,139.445267 374.070618,141.950760 374.071991,144.449402 
	C374.082336,163.276306 374.027283,182.103409 374.094757,200.930069 
	C374.157898,218.556381 381.135193,232.127808 398.136047,240.418732 
z"/>
<path fill="#FEFEFE" opacity="1.000000" stroke="none" 
	d="
M314.961456,317.998291 
	C317.788666,318.002777 320.121094,318.000946 322.453339,318.019073 
	C322.769287,318.021515 323.084442,318.123810 323.701782,318.233490 
	C323.701782,332.585144 323.701782,346.987976 323.701782,361.697083 
	C275.770813,361.697083 227.721344,361.697083 179.383850,361.697083 
	C179.383850,278.038971 179.383850,194.350739 179.383850,110.412003 
	C227.470428,110.412003 275.384430,110.412003 323.651978,110.412003 
	C323.651978,124.739555 323.651978,139.118423 323.651978,153.847900 
	C293.458496,153.847900 263.201843,153.847900 232.613281,153.847900 
	C232.613281,172.258270 232.613281,190.325638 232.613281,208.971619 
	C260.727325,208.971619 288.926361,208.971619 317.427490,208.971619 
	C317.427490,223.791367 317.427490,238.039734 317.427490,252.791199 
	C289.287842,252.791199 261.069977,252.791199 232.567734,252.791199 
	C232.567734,274.685577 232.567734,296.080658 232.567734,317.998291 
	C259.934021,317.998291 287.200317,317.998291 314.961456,317.998291 
z"/>
<path fill="#626262" opacity="1.000000" stroke="none" 
	d="
M128.021500,137.351715 
	C127.978111,158.638947 127.946991,179.463394 127.928299,200.287842 
	C127.914825,215.303085 123.527222,228.578430 110.167542,236.620758 
	C103.054283,240.902832 94.622307,243.009155 86.751640,246.008514 
	C84.576599,246.837372 82.279793,247.346710 80.038857,248.002655 
	C80.035057,248.497818 80.031250,248.992981 80.027443,249.488144 
	C81.800804,249.995956 83.623909,250.374329 85.339157,251.033386 
	C94.122002,254.408020 103.590752,256.693451 111.479507,261.540771 
	C124.258835,269.393188 127.893906,282.650391 127.919044,297.004761 
	C127.951431,315.497070 127.924576,333.989441 127.930717,352.481781 
	C127.931496,354.813873 127.920433,357.148254 128.012177,359.477722 
	C128.510178,372.123016 133.089371,378.418060 145.207367,381.997955 
	C150.879364,383.673584 156.834457,384.391083 162.988037,385.607422 
	C162.988037,400.182953 162.988037,415.116394 162.988037,430.008423 
	C156.209106,430.008423 149.402603,430.592865 142.735367,429.878082 
	C131.352905,428.657806 119.765175,427.696838 108.786804,424.706421 
	C85.771790,418.437256 74.818428,403.974121 74.252167,379.974487 
	C73.713928,357.162781 74.102249,334.330261 73.901833,311.508545 
	C73.862686,307.051422 73.539154,302.456818 72.406105,298.174561 
	C68.417953,283.101685 56.346958,277.826263 42.737930,275.132141 
	C36.080936,273.814301 29.204693,273.603912 22.127743,272.860809 
	C22.127743,257.009033 22.127743,241.081970 22.127743,224.746658 
	C25.395128,224.527618 28.691475,224.511459 31.922813,224.044968 
	C37.666424,223.215836 43.481293,222.530762 49.070484,221.047409 
	C65.438667,216.703354 73.701164,206.180176 73.882912,189.245804 
	C74.111755,167.923752 73.644684,146.590591 74.122353,125.276657 
	C74.310379,116.886658 75.499046,108.349777 77.545532,100.210014 
	C80.689697,87.704346 89.616615,79.934288 101.281868,75.064339 
	C115.990601,68.923813 131.543427,67.520233 147.214600,66.856651 
	C152.339096,66.639648 157.480515,66.822517 162.933075,66.822517 
	C162.933075,81.943413 162.933075,97.004494 162.933075,112.288101 
	C146.939941,114.374245 129.697571,114.724396 128.021500,137.351715 
z"/>
<path fill="#626262" opacity="1.000000" stroke="none" 
	d="
M397.799225,240.250610 
	C381.135193,232.127808 374.157898,218.556381 374.094757,200.930069 
	C374.027283,182.103409 374.082336,163.276306 374.071991,144.449402 
	C374.070618,141.950760 374.104645,139.445267 373.942505,136.954666 
	C373.153900,124.840759 368.039368,118.282684 356.320129,115.176186 
	C350.752258,113.700264 344.960327,113.069557 339.007996,112.009300 
	C339.007996,97.153671 339.007996,82.207619 339.007996,66.936012 
	C345.240356,66.936012 351.553864,66.379997 357.732422,67.056648 
	C369.111755,68.302887 380.691864,69.223282 391.687836,72.155945 
	C416.314301,78.723900 427.027008,92.687531 427.707886,118.344528 
	C428.277924,139.822678 428.530365,161.344620 427.838623,182.812210 
	C426.911957,211.570053 441.459137,220.878571 466.556885,223.867325 
	C470.828827,224.376038 475.158325,224.401321 480.093628,224.686508 
	C480.093628,232.760239 480.093658,240.688324 480.093658,248.616394 
	C480.093658,256.593994 480.093628,264.571594 480.093628,272.814240 
	C473.436096,273.524048 467.018066,273.996002 460.675476,274.962952 
	C456.766113,275.558929 452.851562,276.589325 449.147308,277.979065 
	C434.957184,283.302673 428.170532,292.857208 428.051941,307.991516 
	C427.884827,329.316284 428.258942,350.648285 427.848663,371.966522 
	C427.696442,379.877594 426.647522,387.915070 424.835907,395.619385 
	C421.507294,409.774933 411.637024,418.237610 398.361603,423.111786 
	C379.255096,430.126892 359.269714,429.991608 339.049011,430.788940 
	C339.049011,415.401642 339.049011,400.480865 339.049011,385.573090 
	C344.837372,384.444733 350.769897,383.755798 356.415436,382.092712 
	C369.082611,378.361237 373.808838,372.138733 373.958588,358.858887 
	C374.191589,338.201904 374.034637,317.540680 374.086700,296.881378 
	C374.117035,284.841919 376.816315,273.648468 385.856750,265.043121 
	C394.336029,256.972015 405.123108,253.524963 416.275787,251.057892 
	C418.139435,250.645660 419.993042,250.188095 421.851318,249.751495 
	C421.892273,249.306335 421.933258,248.861191 421.974213,248.416031 
	C414.028168,245.750259 406.082092,243.084503 397.799225,240.250610 
z"/>
</svg>