<svg version="1.1" id="Layer_1" xmlns="http://www.w3.org/2000/svg" xmlns:xlink="http://www.w3.org/1999/xlink" x="0px" y="0px"
	 width="100%" viewBox="0 0 500 500" enable-background="new 0 0 500 500" xml:space="preserve">
<path fill="#00000000" opacity="1.000000" stroke="none" 
	d="
M275.000000,501.000000 
	C183.333359,501.000000 92.166710,501.000000 1.000049,501.000000 
	C1.000033,334.333405 1.000033,167.666794 1.000016,1.000138 
	C167.666565,1.000092 334.333130,1.000092 500.999756,1.000046 
	C500.999847,167.666519 500.999847,334.333038 500.999939,500.999786 
	C425.833344,501.000000 350.666656,501.000000 275.000000,501.000000 
M86.002907,411.997314 
	C86.002907,411.997314 85.965988,412.008209 86.113098,412.514404 
	C86.406364,412.686981 86.699631,412.859558 87.003052,412.998688 
	C87.003052,412.998688 86.970856,413.012115 87.193443,413.618866 
	C88.457703,414.748352 89.721962,415.877838 90.999062,417.000000 
	C90.999062,417.000000 90.992989,417.012024 91.155014,417.499329 
	C91.458969,417.576324 91.762924,417.653320 92.493462,417.898407 
	C92.493462,417.898407 92.941719,417.994720 93.112000,418.506500 
	C93.427284,418.598083 93.742577,418.689667 94.482986,418.932861 
	C94.482986,418.932861 94.929062,419.001678 95.118912,419.502777 
	C95.433311,419.585144 95.747711,419.667480 96.480385,419.906677 
	C96.480385,419.906677 96.914963,420.010040 97.083435,420.524719 
	C97.387756,420.692566 97.692078,420.860413 98.002525,420.996521 
	C98.002525,420.996521 97.971909,421.006866 98.123795,421.520111 
	C98.438278,421.598145 98.752754,421.676178 99.495651,421.898590 
	C99.495651,421.898590 99.938850,421.987885 100.191849,422.580688 
	C100.801849,422.642853 101.411858,422.705048 102.466034,422.911682 
	C102.466034,422.911682 102.925079,422.997925 103.202530,423.580902 
	C103.813347,423.641144 104.424164,423.701385 105.476227,423.896576 
	C105.476227,423.896576 105.925270,424.002686 106.099480,424.524261 
	C106.420815,424.605042 106.742149,424.685822 107.682045,424.889496 
	C108.101036,424.921021 108.520020,424.952515 109.267258,425.631470 
	C110.211639,425.678436 111.156029,425.725403 112.482010,425.924805 
	C112.482010,425.924805 112.882523,426.016693 113.204132,426.658173 
	C114.131813,426.693268 115.059494,426.728333 116.623672,426.894226 
	C117.055420,426.929108 117.487160,426.963989 118.348022,427.694458 
	C121.565544,428.053528 124.783058,428.412567 128.637650,428.890778 
	C129.068619,428.919952 129.499588,428.949158 130.388306,429.722839 
	C134.917313,429.824707 139.446320,429.926605 143.999390,430.000000 
	C143.999390,430.000000 143.977890,430.028015 144.426453,430.769409 
	C150.979675,430.524017 157.532913,430.278625 164.740952,429.662231 
	C164.819626,426.340912 165.045990,423.015198 164.947861,419.699097 
	C164.703293,411.434631 164.270752,403.175842 163.997284,394.911987 
	C163.882248,391.435669 163.978119,387.952393 163.978119,384.664703 
	C158.796173,384.080475 154.113434,384.073303 149.721970,382.938751 
	C142.651001,381.111969 134.820648,379.424255 131.605942,371.907776 
	C129.420334,366.797516 128.182465,360.911224 128.084625,355.344452 
	C127.707039,333.859009 128.317505,312.354675 127.846466,290.872986 
	C127.539627,276.879578 121.227066,265.517303 108.459633,259.130951 
	C99.852219,254.825424 90.516151,251.976608 81.425522,248.444855 
	C81.535995,248.345947 82.198570,247.292923 83.092377,247.031967 
	C86.975060,245.898392 90.892067,244.830215 94.856453,244.037674 
	C112.072433,240.595871 129.530273,223.956543 128.119125,200.990067 
	C126.966606,182.232666 127.778214,163.349655 127.888832,144.523346 
	C127.913834,140.266403 128.068207,135.856018 129.182602,131.796127 
	C130.823364,125.818565 133.021698,119.828453 140.116272,117.908295 
	C147.909790,115.798973 155.687149,113.629951 163.976166,111.348022 
	C163.976166,97.078888 163.976166,81.669411 163.976166,65.610168 
	C155.311676,66.138222 147.560104,66.642876 139.804520,67.075691 
	C128.331284,67.715965 117.160408,69.538872 106.055840,72.861755 
	C84.131348,79.422340 74.684547,96.256554 74.170517,117.061501 
	C73.531853,142.911041 73.050407,168.764511 72.518417,194.616638 
	C72.305397,204.967804 66.867744,212.516983 58.183506,216.766495 
	C51.480717,220.046432 43.725136,221.333954 36.317142,222.957504 
	C31.418419,224.031128 26.306456,224.131805 21.360411,224.660538 
	C21.360411,241.110168 21.360411,257.357880 21.360411,273.942230 
	C23.815571,273.942230 25.953802,273.934601 28.091965,273.943481 
	C39.226357,273.989746 49.667973,276.419189 59.622440,281.701813 
	C67.908859,286.099213 72.077034,293.498474 72.741623,301.724274 
	C74.054405,317.972748 73.814674,334.356262 73.948227,350.686127 
	C74.008942,358.108826 73.429817,365.536774 73.272377,373.794739 
	C73.538017,375.539825 73.839394,377.280426 74.060974,379.031097 
	C74.399391,381.704895 74.682701,384.385651 75.065117,387.714661 
	C75.128891,388.145905 75.192665,388.577179 75.074623,389.744324 
	C75.385818,390.851349 75.697021,391.958344 76.100929,393.483551 
	C76.100929,393.483551 76.250893,393.884766 76.082703,394.532318 
	C76.396561,395.046661 76.710419,395.560974 77.077950,396.703491 
	C77.123787,397.120239 77.169624,397.536957 77.102806,398.496460 
	C77.396690,398.697845 77.690575,398.899231 78.082550,399.514038 
	C78.082550,399.514038 78.234604,399.910797 78.082481,400.599243 
	C78.715439,401.742249 79.348396,402.885254 79.998871,403.998108 
	C79.998871,403.998108 79.968956,404.017029 80.031059,404.672119 
	C80.679337,405.464050 81.327606,406.255981 81.997818,406.998322 
	C81.997818,406.998322 81.949150,407.022247 82.027725,407.679810 
	C82.687134,408.476593 83.346535,409.273407 84.160973,410.513580 
	C84.346260,410.793549 84.605392,410.954895 85.103088,411.505768 
	C85.399506,411.681946 85.695915,411.858124 86.002907,411.997314 
M232.991196,303.495300 
	C232.991196,286.736389 232.991196,269.977478 232.991196,252.807922 
	C261.630188,252.807922 289.693695,252.807922 317.648590,252.807922 
	C317.648590,237.991409 317.648590,223.594193 317.648590,208.783615 
	C289.267792,208.783615 261.203583,208.783615 233.299164,208.783615 
	C233.299164,190.293991 233.299164,172.225250 233.299164,153.773193 
	C263.691864,153.773193 293.759705,153.773193 323.686523,153.773193 
	C323.686523,138.980103 323.686523,124.577972 323.686523,110.340836 
	C275.315094,110.340836 227.257660,110.340836 179.318604,110.340836 
	C179.318604,194.381332 179.318604,278.098175 179.318604,361.705688 
	C227.675522,361.705688 275.736176,361.705688 323.705261,361.705688 
	C323.705261,347.005981 323.705261,332.603119 323.705261,317.813812 
	C293.345062,317.813812 263.277832,317.813812 232.990906,317.813812 
	C232.990906,313.113373 232.990906,308.802734 232.991196,303.495300 
M427.900604,332.500000 
	C428.236237,322.568878 428.322876,312.620911 428.991577,302.712280 
	C429.468719,295.641907 432.448669,289.112061 437.912994,284.753632 
	C445.239166,278.910156 453.942657,275.621521 463.473114,274.931671 
	C469.173523,274.519012 474.861267,273.930603 480.531799,273.423248 
	C480.531799,256.972839 480.531799,240.603210 480.531799,224.776947 
	C472.564850,223.837067 464.960144,223.458954 457.584229,221.957214 
	C443.988770,219.189133 432.825439,212.812881 429.544495,198.034714 
	C428.239227,192.155380 428.025909,185.952286 427.973206,179.890884 
	C427.787781,158.568741 427.950043,137.243729 427.818939,115.920792 
	C427.796936,112.336128 427.240265,108.698967 426.479309,105.183754 
	C421.802368,83.578522 406.092529,74.275299 386.306763,70.185249 
	C376.706573,68.200737 366.876495,67.165314 357.098541,66.263123 
	C350.900818,65.691261 344.607422,66.156281 338.347321,66.156281 
	C338.347321,82.103630 338.347321,97.353447 338.347321,112.421646 
	C342.397766,112.960762 346.185730,113.174866 349.832367,114.007812 
	C358.740021,116.042442 368.103699,117.808479 371.541718,128.053833 
	C372.975342,132.326080 373.980255,136.959793 374.029572,141.441833 
	C374.260681,162.429138 374.025269,183.421051 374.087952,204.410919 
	C374.128845,218.096237 379.787231,228.976181 390.981201,236.921112 
	C398.869324,242.519730 408.058044,244.696091 417.228790,246.950897 
	C418.611725,247.290894 419.886719,248.069946 422.123688,249.042404 
	C415.023010,250.987396 409.290771,252.203903 403.804932,254.124329 
	C384.757996,260.792175 373.557526,274.256531 374.018250,295.415466 
	C374.460571,315.730072 374.393555,336.065399 374.056213,356.383423 
	C373.881622,366.898773 371.392975,376.855194 359.730988,380.641602 
	C354.367828,382.382904 348.670807,383.512115 343.053345,383.913635 
	C339.025665,384.201508 337.815216,385.391785 338.041992,389.243744 
	C338.315613,393.892151 338.104645,398.569031 338.104431,403.233612 
	C338.104004,412.336029 338.104279,421.438446 338.104279,431.380890 
	C346.263885,430.860474 353.840637,430.641724 361.353790,429.832581 
	C371.264801,428.765198 381.307739,428.011993 390.972931,425.751190 
	C415.853394,419.931427 427.424438,404.230957 427.861847,378.978424 
	C428.124359,363.823273 427.903931,348.659760 427.900604,332.500000 
z"/>
<path fill="#FFFFFF" opacity="1.000000" stroke="none" 
	d="
M232.991058,303.993713 
	C232.990906,308.802734 232.990906,313.113373 232.990906,317.813812 
	C263.277832,317.813812 293.345062,317.813812 323.705261,317.813812 
	C323.705261,332.603119 323.705261,347.005981 323.705261,361.705688 
	C275.736176,361.705688 227.675522,361.705688 179.318604,361.705688 
	C179.318604,278.098175 179.318604,194.381332 179.318604,110.340836 
	C227.257660,110.340836 275.315094,110.340836 323.686523,110.340836 
	C323.686523,124.577972 323.686523,138.980103 323.686523,153.773193 
	C293.759705,153.773193 263.691864,153.773193 233.299164,153.773193 
	C233.299164,172.225250 233.299164,190.293991 233.299164,208.783615 
	C261.203583,208.783615 289.267792,208.783615 317.648590,208.783615 
	C317.648590,223.594193 317.648590,237.991409 317.648590,252.807922 
	C289.693695,252.807922 261.630188,252.807922 232.991196,252.807922 
	C232.991196,269.977478 232.991196,286.736389 232.991058,303.993713 
z"/>
<path fill="#626262" opacity="1.000000" stroke="none" 
	d="
M427.900574,333.000000 
	C427.903931,348.659760 428.124359,363.823273 427.861847,378.978424 
	C427.424438,404.230957 415.853394,419.931427 390.972931,425.751190 
	C381.307739,428.011993 371.264801,428.765198 361.353790,429.832581 
	C353.840637,430.641724 346.263885,430.860474 338.104279,431.380890 
	C338.104279,421.438446 338.104004,412.336029 338.104431,403.233612 
	C338.104645,398.569031 338.315613,393.892151 338.041992,389.243744 
	C337.815216,385.391785 339.025665,384.201508 343.053345,383.913635 
	C348.670807,383.512115 354.367828,382.382904 359.730988,380.641602 
	C371.392975,376.855194 373.881622,366.898773 374.056213,356.383423 
	C374.393555,336.065399 374.460571,315.730072 374.018250,295.415466 
	C373.557526,274.256531 384.757996,260.792175 403.804932,254.124329 
	C409.290771,252.203903 415.023010,250.987396 422.123688,249.042404 
	C419.886719,248.069946 418.611725,247.290894 417.228790,246.950897 
	C408.058044,244.696091 398.869324,242.519730 390.981201,236.921112 
	C379.787231,228.976181 374.128845,218.096237 374.087952,204.410919 
	C374.025269,183.421051 374.260681,162.429138 374.029572,141.441833 
	C373.980255,136.959793 372.975342,132.326080 371.541718,128.053833 
	C368.103699,117.808479 358.740021,116.042442 349.832367,114.007812 
	C346.185730,113.174866 342.397766,112.960762 338.347321,112.421646 
	C338.347321,97.353447 338.347321,82.103630 338.347321,66.156281 
	C344.607422,66.156281 350.900818,65.691261 357.098541,66.263123 
	C366.876495,67.165314 376.706573,68.200737 386.306763,70.185249 
	C406.092529,74.275299 421.802368,83.578522 426.479309,105.183754 
	C427.240265,108.698967 427.796936,112.336128 427.818939,115.920792 
	C427.950043,137.243729 427.787781,158.568741 427.973206,179.890884 
	C428.025909,185.952286 428.239227,192.155380 429.544495,198.034714 
	C432.825439,212.812881 443.988770,219.189133 457.584229,221.957214 
	C464.960144,223.458954 472.564850,223.837067 480.531799,224.776947 
	C480.531799,240.603210 480.531799,256.972839 480.531799,273.423248 
	C474.861267,273.930603 469.173523,274.519012 463.473114,274.931671 
	C453.942657,275.621521 445.239166,278.910156 437.912994,284.753632 
	C432.448669,289.112061 429.468719,295.641907 428.991577,302.712280 
	C428.322876,312.620911 428.236237,322.568878 427.900574,333.000000 
z"/>
<path fill="#626262" opacity="1.000000" stroke="none" 
	d="
M75.256439,389.008423 
	C75.192665,388.577179 75.128891,388.145905 75.312294,387.089294 
	C75.678772,381.797638 77.766563,376.778717 73.140930,372.962341 
	C73.429817,365.536774 74.008942,358.108826 73.948227,350.686127 
	C73.814674,334.356262 74.054405,317.972748 72.741623,301.724274 
	C72.077034,293.498474 67.908859,286.099213 59.622440,281.701813 
	C49.667973,276.419189 39.226357,273.989746 28.091965,273.943481 
	C25.953802,273.934601 23.815571,273.942230 21.360411,273.942230 
	C21.360411,257.357880 21.360411,241.110168 21.360411,224.660538 
	C26.306456,224.131805 31.418419,224.031128 36.317142,222.957504 
	C43.725136,221.333954 51.480717,220.046432 58.183506,216.766495 
	C66.867744,212.516983 72.305397,204.967804 72.518417,194.616638 
	C73.050407,168.764511 73.531853,142.911041 74.170517,117.061501 
	C74.684547,96.256554 84.131348,79.422340 106.055840,72.861755 
	C117.160408,69.538872 128.331284,67.715965 139.804520,67.075691 
	C147.560104,66.642876 155.311676,66.138222 163.976166,65.610168 
	C163.976166,81.669411 163.976166,97.078888 163.976166,111.348022 
	C155.687149,113.629951 147.909790,115.798973 140.116272,117.908295 
	C133.021698,119.828453 130.823364,125.818565 129.182602,131.796127 
	C128.068207,135.856018 127.913834,140.266403 127.888832,144.523346 
	C127.778214,163.349655 126.966606,182.232666 128.119125,200.990067 
	C129.530273,223.956543 112.072433,240.595871 94.856453,244.037674 
	C90.892067,244.830215 86.975060,245.898392 83.092377,247.031967 
	C82.198570,247.292923 81.535995,248.345947 81.425522,248.444855 
	C90.516151,251.976608 99.852219,254.825424 108.459633,259.130951 
	C121.227066,265.517303 127.539627,276.879578 127.846466,290.872986 
	C128.317505,312.354675 127.707039,333.859009 128.084625,355.344452 
	C128.182465,360.911224 129.420334,366.797516 131.605942,371.907776 
	C134.820648,379.424255 142.651001,381.111969 149.721970,382.938751 
	C154.113434,384.073303 158.796173,384.080475 163.978119,384.664703 
	C163.978119,387.952393 163.882248,391.435669 163.997284,394.911987 
	C164.270752,403.175842 164.703293,411.434631 164.947861,419.699097 
	C165.045990,423.015198 164.819626,426.340912 163.939453,429.826294 
	C156.751266,430.002899 150.364578,430.015472 143.977890,430.028015 
	C143.977890,430.028015 143.999390,430.000000 143.916901,429.615204 
	C139.199799,429.146393 134.565186,429.062378 129.930557,428.978363 
	C129.499588,428.949158 129.068619,428.919952 128.067184,428.583801 
	C124.304115,427.850800 121.111511,427.424835 117.918907,426.998840 
	C117.487160,426.963989 117.055420,426.929108 116.060806,426.606323 
	C114.626137,426.217865 113.754326,426.117279 112.882523,426.016693 
	C112.882523,426.016693 112.482010,425.924805 112.211319,425.540466 
	C110.940094,425.098785 109.939545,425.041412 108.939003,424.984070 
	C108.520020,424.952515 108.101036,424.921021 107.235405,424.631165 
	C106.549744,424.135590 106.261909,424.012207 105.925270,424.002686 
	C105.925270,424.002686 105.476227,423.896576 105.053497,423.613434 
	C104.062202,423.219513 103.493645,423.108704 102.925079,422.997925 
	C102.925079,422.997925 102.466034,422.911682 102.046188,422.623291 
	C101.063850,422.219208 100.501350,422.103546 99.938843,421.987915 
	C99.938850,421.987885 99.495651,421.898590 99.150261,421.634399 
	C98.575424,421.138550 98.297768,421.017426 97.971909,421.006866 
	C97.971909,421.006866 98.002525,420.996521 97.894913,420.772583 
	C97.496529,420.369110 97.205742,420.189575 96.914963,420.010040 
	C96.914963,420.010040 96.480385,419.906677 96.139153,419.627991 
	C95.557777,419.109711 95.268158,418.993835 94.929062,419.001678 
	C94.929062,419.001678 94.482986,418.932861 94.137642,418.658081 
	C93.561478,418.138397 93.277954,418.008850 92.941719,417.994720 
	C92.941719,417.994720 92.493462,417.898407 92.155579,417.622131 
	C91.592415,417.111908 91.317513,417.000641 90.992989,417.012024 
	C90.992989,417.012024 90.999062,417.000000 91.000786,416.626038 
	C89.658623,415.172119 88.314735,414.092133 86.970856,413.012115 
	C86.970856,413.012115 87.003052,412.998688 86.906242,412.775574 
	C86.528282,412.371033 86.247131,412.189636 85.965988,412.008209 
	C85.965988,412.008209 86.002907,411.997314 85.901817,411.772522 
	C85.513275,411.364410 85.225822,411.181030 84.938362,410.997681 
	C84.605392,410.954895 84.346260,410.793549 84.087753,409.927582 
	C83.326073,408.568481 82.637611,407.795349 81.949150,407.022247 
	C81.949150,407.022247 81.997818,406.998322 81.995621,406.662903 
	C81.318596,405.557312 80.643784,404.787170 79.968964,404.017029 
	C79.968956,404.017029 79.998871,403.998108 80.007889,403.647644 
	C79.422806,402.168396 78.828705,401.039612 78.234604,399.910797 
	C78.234604,399.910797 78.082550,399.514038 77.977280,399.074127 
	C77.728905,398.334320 77.510048,398.107483 77.215454,397.953705 
	C77.169624,397.536957 77.123787,397.120239 77.270035,396.217590 
	C77.058380,395.116028 76.654640,394.500397 76.250900,393.884766 
	C76.250893,393.884766 76.100929,393.483551 76.066544,392.914978 
	C75.773590,391.233734 75.515015,390.121063 75.256439,389.008423 
z"/>
<path fill="#1D9ED0" opacity="1.000000" stroke="none" 
	d="
M130.159424,429.350586 
	C134.565186,429.062378 139.199799,429.146393 143.904877,429.629456 
	C139.446320,429.926605 134.917313,429.824707 130.159424,429.350586 
z"/>
<path fill="#1D9ED0" opacity="1.000000" stroke="none" 
	d="
M73.206650,373.378540 
	C77.766563,376.778717 75.678772,381.797638 75.274437,386.763733 
	C74.682701,384.385651 74.399391,381.704895 74.060974,379.031097 
	C73.839394,377.280426 73.538017,375.539825 73.206650,373.378540 
z"/>
<path fill="#1D9ED0" opacity="1.000000" stroke="none" 
	d="
M144.202179,430.398712 
	C150.364578,430.015472 156.751266,430.002899 163.612045,430.011780 
	C157.532913,430.278625 150.979675,430.524017 144.202179,430.398712 
z"/>
<path fill="#1D9ED0" opacity="1.000000" stroke="none" 
	d="
M118.133469,427.346680 
	C121.111511,427.424835 124.304115,427.850800 127.748657,428.524231 
	C124.783058,428.412567 121.565544,428.053528 118.133469,427.346680 
z"/>
<path fill="#1D9ED0" opacity="1.000000" stroke="none" 
	d="
M87.082146,413.315491 
	C88.314735,414.092133 89.658623,415.172119 90.994370,416.629700 
	C89.721962,415.877838 88.457703,414.748352 87.082146,413.315491 
z"/>
<path fill="#1D9ED0" opacity="1.000000" stroke="none" 
	d="
M78.158539,400.255005 
	C78.828705,401.039612 79.422806,402.168396 79.999130,403.662720 
	C79.348396,402.885254 78.715439,401.742249 78.158539,400.255005 
z"/>
<path fill="#1D9ED0" opacity="1.000000" stroke="none" 
	d="
M109.103134,425.307770 
	C109.939545,425.041412 110.940094,425.098785 112.020523,425.464233 
	C111.156029,425.725403 110.211639,425.678436 109.103134,425.307770 
z"/>
<path fill="#1D9ED0" opacity="1.000000" stroke="none" 
	d="
M80.000015,404.344574 
	C80.643784,404.787170 81.318596,405.557312 81.984650,406.687683 
	C81.327606,406.255981 80.679337,405.464050 80.000015,404.344574 
z"/>
<path fill="#1D9ED0" opacity="1.000000" stroke="none" 
	d="
M81.988434,407.351013 
	C82.637611,407.795349 83.326073,408.568481 84.010239,409.705872 
	C83.346535,409.273407 82.687134,408.476593 81.988434,407.351013 
z"/>
<path fill="#1D9ED0" opacity="1.000000" stroke="none" 
	d="
M75.165527,389.376373 
	C75.515015,390.121063 75.773590,391.233734 76.020187,392.705872 
	C75.697021,391.958344 75.385818,390.851349 75.165527,389.376373 
z"/>
<path fill="#1D9ED0" opacity="1.000000" stroke="none" 
	d="
M76.166801,394.208557 
	C76.654640,394.500397 77.058380,395.116028 77.243202,395.903503 
	C76.710419,395.560974 76.396561,395.046661 76.166801,394.208557 
z"/>
<path fill="#1D9ED0" opacity="1.000000" stroke="none" 
	d="
M113.043327,426.337433 
	C113.754326,426.117279 114.626137,426.217865 115.742554,426.540955 
	C115.059494,426.728333 114.131813,426.693268 113.043327,426.337433 
z"/>
<path fill="#1D9ED0" opacity="1.000000" stroke="none" 
	d="
M100.065346,422.284302 
	C100.501350,422.103546 101.063850,422.219208 101.824112,422.551056 
	C101.411858,422.705048 100.801849,422.642853 100.065346,422.284302 
z"/>
<path fill="#1D9ED0" opacity="1.000000" stroke="none" 
	d="
M103.063805,423.289429 
	C103.493645,423.108704 104.062202,423.219513 104.832870,423.545959 
	C104.424164,423.701385 103.813347,423.641144 103.063805,423.289429 
z"/>
<path fill="#1D9ED0" opacity="1.000000" stroke="none" 
	d="
M93.026855,418.250610 
	C93.277954,418.008850 93.561478,418.138397 93.925079,418.582275 
	C93.742577,418.689667 93.427284,418.598083 93.026855,418.250610 
z"/>
<path fill="#1D9ED0" opacity="1.000000" stroke="none" 
	d="
M95.023987,419.252228 
	C95.268158,418.993835 95.557777,419.109711 95.930016,419.549561 
	C95.747711,419.667480 95.433311,419.585144 95.023987,419.252228 
z"/>
<path fill="#1D9ED0" opacity="1.000000" stroke="none" 
	d="
M96.999191,420.267395 
	C97.205742,420.189575 97.496529,420.369110 97.891846,420.788452 
	C97.692078,420.860413 97.387756,420.692566 96.999191,420.267395 
z"/>
<path fill="#1D9ED0" opacity="1.000000" stroke="none" 
	d="
M98.047852,421.263489 
	C98.297768,421.017426 98.575424,421.138550 98.936050,421.562195 
	C98.752754,421.676178 98.438278,421.598145 98.047852,421.263489 
z"/>
<path fill="#1D9ED0" opacity="1.000000" stroke="none" 
	d="
M106.012375,424.263489 
	C106.261909,424.012207 106.549744,424.135590 106.926132,424.569702 
	C106.742149,424.685822 106.420815,424.605042 106.012375,424.263489 
z"/>
<path fill="#1D9ED0" opacity="1.000000" stroke="none" 
	d="
M91.074005,417.255676 
	C91.317513,417.000641 91.592415,417.111908 91.942291,417.538086 
	C91.762924,417.653320 91.458969,417.576324 91.074005,417.255676 
z"/>
<path fill="#1D9ED0" opacity="1.000000" stroke="none" 
	d="
M86.039536,412.261292 
	C86.247131,412.189636 86.528282,412.371033 86.901169,412.792297 
	C86.699631,412.859558 86.406364,412.686981 86.039536,412.261292 
z"/>
<path fill="#1D9ED0" opacity="1.000000" stroke="none" 
	d="
M85.020729,411.251709 
	C85.225822,411.181030 85.513275,411.364410 85.896530,411.791016 
	C85.695915,411.858124 85.399506,411.681946 85.020729,411.251709 
z"/>
<path fill="#1D9ED0" opacity="1.000000" stroke="none" 
	d="
M77.159134,398.225098 
	C77.510048,398.107483 77.728905,398.334320 77.928238,398.867432 
	C77.690575,398.899231 77.396690,398.697845 77.159134,398.225098 
z"/>
</svg>